<svg xmlns="http://www.w3.org/2000/svg" viewBox="-1500 -1500 21300 21630"
     width="1420" height="1442"
     role="img" aria-label="Orientační schéma dispozice přízemí domu Trojanovice 495">
<rect x="-1500" y="-1500" width="21300" height="21630" fill="#fbf9f6"/>
<path d="M0,0 H18300 V10250 H11300 V15930 H0 Z" fill="#332d25"/>
<polygon points="450,450 3650,450 3650,3620 450,3620" fill="#ffffff"/>
<polygon points="3800,450 5250,450 5250,3620 3800,3620" fill="#ffffff"/>
<polygon points="5400,450 8150,450 8150,3170 5400,3170" fill="#ffffff"/>
<polygon points="8300,450 11250,450 11250,4900 8300,4900" fill="#ffffff"/>
<polygon points="11400,450 15000,450 15000,3970 11400,3970" fill="#ffffff"/>
<polygon points="15150,450 17850,450 17850,2600 15150,2600" fill="#ffffff"/>
<polygon points="450,3770 3650,3770 3650,6000 450,6000" fill="#ffffff"/>
<polygon points="3800,3770 5250,3770 5250,6200 3800,6200" fill="#ffffff"/>
<polygon points="5400,3320 8150,3320 8150,6900 5400,6900" fill="#ffffff"/>
<polygon points="11400,4120 15000,4120 15000,2750 17850,2750 17850,6900 11400,6900" fill="#ffffff"/>
<polygon points="450,6350 5250,6350 5250,9800 450,9800" fill="#ffffff"/>
<polygon points="5400,6900 8300,6900 8300,5050 11250,5050 11250,6900 14950,6900 14950,10250 5400,10250" fill="#ffffff"/>
<polygon points="450,10850 8100,10850 8100,15500 450,15500" fill="#ffffff"/>
<polygon points="15150,6900 17850,6900 17850,10250 15150,10250" fill="#efe9df"/>
<polygon points="8250,10850 11300,10850 11300,15500 8250,15500" fill="#efe9df"/>
<rect x="1000" y="0" width="1300" height="450" fill="#ffffff"/>
<line x1="1000" y1="225.0" x2="2300" y2="225.0" stroke="#b9ae9c" stroke-width="60"/>
<rect x="2500" y="0" width="1000" height="450" fill="#ffffff"/>
<line x1="2500" y1="225.0" x2="3500" y2="225.0" stroke="#b9ae9c" stroke-width="60"/>
<rect x="3900" y="0" width="1100" height="450" fill="#ffffff"/>
<line x1="3900" y1="225.0" x2="5000" y2="225.0" stroke="#b9ae9c" stroke-width="60"/>
<rect x="6250" y="0" width="1100" height="450" fill="#ffffff"/>
<rect x="9000" y="0" width="1400" height="450" fill="#ffffff"/>
<line x1="9000" y1="225.0" x2="10400" y2="225.0" stroke="#b9ae9c" stroke-width="60"/>
<rect x="11900" y="0" width="1900" height="450" fill="#ffffff"/>
<line x1="11900" y1="225.0" x2="13800" y2="225.0" stroke="#b9ae9c" stroke-width="60"/>
<rect x="15200" y="0" width="1100" height="450" fill="#ffffff"/>
<line x1="15200" y1="225.0" x2="16300" y2="225.0" stroke="#b9ae9c" stroke-width="60"/>
<rect x="16900" y="0" width="800" height="450" fill="#ffffff"/>
<line x1="16900" y1="225.0" x2="17700" y2="225.0" stroke="#b9ae9c" stroke-width="60"/>
<rect x="0" y="900" width="450" height="1500" fill="#ffffff"/>
<line x1="225.0" y1="900" x2="225.0" y2="2400" stroke="#b9ae9c" stroke-width="60"/>
<rect x="0" y="6900" width="450" height="1600" fill="#ffffff"/>
<line x1="225.0" y1="6900" x2="225.0" y2="8500" stroke="#b9ae9c" stroke-width="60"/>
<rect x="0" y="11500" width="450" height="1400" fill="#ffffff"/>
<line x1="225.0" y1="11500" x2="225.0" y2="12900" stroke="#b9ae9c" stroke-width="60"/>
<rect x="0" y="13400" width="450" height="1400" fill="#ffffff"/>
<line x1="225.0" y1="13400" x2="225.0" y2="14800" stroke="#b9ae9c" stroke-width="60"/>
<rect x="17850" y="3400" width="450" height="1300" fill="#ffffff"/>
<line x1="18075.0" y1="3400" x2="18075.0" y2="4700" stroke="#b9ae9c" stroke-width="60"/>
<rect x="17850" y="7600" width="450" height="1900" fill="#ffffff"/>
<line x1="18075.0" y1="7600" x2="18075.0" y2="9500" stroke="#b9ae9c" stroke-width="60"/>
<rect x="2000" y="15500" width="1700" height="430" fill="#ffffff"/>
<line x1="2000" y1="15715.0" x2="3700" y2="15715.0" stroke="#b9ae9c" stroke-width="60"/>
<rect x="4900" y="15500" width="1700" height="430" fill="#ffffff"/>
<line x1="4900" y1="15715.0" x2="6600" y2="15715.0" stroke="#b9ae9c" stroke-width="60"/>
<rect x="9200" y="10250" width="1600" height="600" fill="#ffffff"/>
<line x1="9200" y1="10550.0" x2="10800" y2="10550.0" stroke="#b9ae9c" stroke-width="60"/>
<rect x="3650" y="1300" width="150" height="800" fill="#ffffff"/>
<rect x="3650" y="4200" width="150" height="800" fill="#ffffff"/>
<rect x="5250" y="1200" width="150" height="800" fill="#ffffff"/>
<rect x="5250" y="4300" width="150" height="800" fill="#ffffff"/>
<rect x="5250" y="7300" width="150" height="900" fill="#ffffff"/>
<rect x="8150" y="1000" width="150" height="900" fill="#ffffff"/>
<rect x="8150" y="4100" width="150" height="900" fill="#ffffff"/>
<rect x="11250" y="1300" width="150" height="900" fill="#ffffff"/>
<rect x="15000" y="1500" width="150" height="800" fill="#ffffff"/>
<rect x="6000" y="6900" width="2200" height="150" fill="#ffffff"/>
<rect x="11250" y="5200" width="150" height="1700" fill="#ffffff"/>
<rect x="2000" y="10250" width="2500" height="600" fill="#ffffff"/>
<rect x="15000" y="8000" width="150" height="1400" fill="#ffffff"/>
<rect x="17850" y="6900" width="450" height="3350" fill="#fbf9f6"/>
<line x1="18075" y1="6900" x2="18075" y2="10250" stroke="#b9ae9c" stroke-width="70" stroke-dasharray="420 300"/>
<rect x="5520" y="7000" width="1180" height="2700" fill="none" stroke="#b9ae9c" stroke-width="70"/>
<line x1="5520" y1="7193" x2="6700" y2="7193" stroke="#b9ae9c" stroke-width="55"/>
<line x1="5520" y1="7386" x2="6700" y2="7386" stroke="#b9ae9c" stroke-width="55"/>
<line x1="5520" y1="7579" x2="6700" y2="7579" stroke="#b9ae9c" stroke-width="55"/>
<line x1="5520" y1="7771" x2="6700" y2="7771" stroke="#b9ae9c" stroke-width="55"/>
<line x1="5520" y1="7964" x2="6700" y2="7964" stroke="#b9ae9c" stroke-width="55"/>
<line x1="5520" y1="8157" x2="6700" y2="8157" stroke="#b9ae9c" stroke-width="55"/>
<line x1="5520" y1="8350" x2="6700" y2="8350" stroke="#b9ae9c" stroke-width="55"/>
<line x1="5520" y1="8543" x2="6700" y2="8543" stroke="#b9ae9c" stroke-width="55"/>
<line x1="5520" y1="8736" x2="6700" y2="8736" stroke="#b9ae9c" stroke-width="55"/>
<line x1="5520" y1="8929" x2="6700" y2="8929" stroke="#b9ae9c" stroke-width="55"/>
<line x1="5520" y1="9121" x2="6700" y2="9121" stroke="#b9ae9c" stroke-width="55"/>
<line x1="5520" y1="9314" x2="6700" y2="9314" stroke="#b9ae9c" stroke-width="55"/>
<line x1="5520" y1="9507" x2="6700" y2="9507" stroke="#b9ae9c" stroke-width="55"/>
<path d="M6110.0,9520 V7300 l-250,290 m250,-290 l250,290" fill="none" stroke="#6b6459" stroke-width="70" stroke-linecap="round"/>
<text x="2050" y="2008" font-family="Georgia, 'Times New Roman', serif" font-size="400" fill="#1c1a17" text-anchor="middle">Koupelna</text>
<text x="2050" y="2508" font-family="system-ui, -apple-system, 'Segoe UI', sans-serif" font-size="288" fill="#6b6459" text-anchor="middle">10,36 m²</text>
<text x="4525" y="1801" font-family="Georgia, 'Times New Roman', serif" font-size="300" fill="#1c1a17" text-anchor="middle">Technické</text>
<text x="4525" y="2146" font-family="Georgia, 'Times New Roman', serif" font-size="300" fill="#1c1a17" text-anchor="middle">zázemí</text>
<text x="4525" y="2531" font-family="system-ui, -apple-system, 'Segoe UI', sans-serif" font-size="216" fill="#6b6459" text-anchor="middle">4,72 m²</text>
<text x="6775" y="1783" font-family="Georgia, 'Times New Roman', serif" font-size="400" fill="#1c1a17" text-anchor="middle">Zádveří</text>
<text x="6775" y="2283" font-family="system-ui, -apple-system, 'Segoe UI', sans-serif" font-size="288" fill="#6b6459" text-anchor="middle">7,30 m²</text>
<text x="9775" y="2648" font-family="Georgia, 'Times New Roman', serif" font-size="400" fill="#1c1a17" text-anchor="middle">Pracovna</text>
<text x="9775" y="3148" font-family="system-ui, -apple-system, 'Segoe UI', sans-serif" font-size="288" fill="#6b6459" text-anchor="middle">12,78 m²</text>
<text x="13200" y="2183" font-family="Georgia, 'Times New Roman', serif" font-size="400" fill="#1c1a17" text-anchor="middle">Pokoj</text>
<text x="13200" y="2683" font-family="system-ui, -apple-system, 'Segoe UI', sans-serif" font-size="288" fill="#6b6459" text-anchor="middle">12,60 m²</text>
<text x="16500" y="1464" font-family="Georgia, 'Times New Roman', serif" font-size="300" fill="#1c1a17" text-anchor="middle">Spíž</text>
<text x="16500" y="1848" font-family="system-ui, -apple-system, 'Segoe UI', sans-serif" font-size="216" fill="#6b6459" text-anchor="middle">5,76 m²</text>
<text x="2050" y="4858" font-family="Georgia, 'Times New Roman', serif" font-size="400" fill="#1c1a17" text-anchor="middle">Šatna</text>
<text x="2050" y="5358" font-family="system-ui, -apple-system, 'Segoe UI', sans-serif" font-size="288" fill="#6b6459" text-anchor="middle">7,25 m²</text>
<text x="4525" y="4924" font-family="Georgia, 'Times New Roman', serif" font-size="300" fill="#1c1a17" text-anchor="middle">Koupelna</text>
<text x="4525" y="5308" font-family="system-ui, -apple-system, 'Segoe UI', sans-serif" font-size="216" fill="#6b6459" text-anchor="middle">3,70 m²</text>
<text x="6775" y="5273" font-family="Georgia, 'Times New Roman', serif" font-size="400" fill="#1c1a17" text-anchor="middle">Vstupní hala</text>
<text x="6775" y="5773" font-family="system-ui, -apple-system, 'Segoe UI', sans-serif" font-size="288" fill="#6b6459" text-anchor="middle">12,86 m²</text>
<text x="14900" y="5073" font-family="Georgia, 'Times New Roman', serif" font-size="400" fill="#1c1a17" text-anchor="middle">Kuchyň</text>
<text x="14900" y="5573" font-family="system-ui, -apple-system, 'Segoe UI', sans-serif" font-size="288" fill="#6b6459" text-anchor="middle">18,80 m²</text>
<text x="2850" y="8048" font-family="Georgia, 'Times New Roman', serif" font-size="400" fill="#1c1a17" text-anchor="middle">Ložnice</text>
<text x="2850" y="8548" font-family="system-ui, -apple-system, 'Segoe UI', sans-serif" font-size="288" fill="#6b6459" text-anchor="middle">17,12 m²</text>
<text x="10200" y="8343" font-family="Georgia, 'Times New Roman', serif" font-size="400" fill="#1c1a17" text-anchor="middle">Jídelní hala</text>
<text x="10200" y="8803" font-family="Georgia, 'Times New Roman', serif" font-size="400" fill="#1c1a17" text-anchor="middle">s galerií</text>
<text x="10200" y="9303" font-family="system-ui, -apple-system, 'Segoe UI', sans-serif" font-size="288" fill="#6b6459" text-anchor="middle">32,73 m²</text>
<text x="4275" y="13148" font-family="Georgia, 'Times New Roman', serif" font-size="400" fill="#1c1a17" text-anchor="middle">Obytná hala</text>
<text x="4275" y="13648" font-family="system-ui, -apple-system, 'Segoe UI', sans-serif" font-size="288" fill="#6b6459" text-anchor="middle">34,00 m²</text>
<text x="16500" y="8548" font-family="Georgia, 'Times New Roman', serif" font-size="400" fill="#1c1a17" text-anchor="middle">Terasa</text>
<text x="16500" y="9048" font-family="system-ui, -apple-system, 'Segoe UI', sans-serif" font-size="288" fill="#6b6459" text-anchor="middle">10,20 m²</text>
<text x="9775" y="13313" font-family="Georgia, 'Times New Roman', serif" font-size="400" fill="#1c1a17" text-anchor="middle">Terasa</text>
<line x1="0" y1="17430" x2="5000" y2="17430" stroke="#332d25" stroke-width="70"/>
<line x1="0.0" y1="17300" x2="0.0" y2="17560" stroke="#332d25" stroke-width="70"/>
<line x1="1000.0" y1="17300" x2="1000.0" y2="17560" stroke="#332d25" stroke-width="70"/>
<line x1="2000.0" y1="17300" x2="2000.0" y2="17560" stroke="#332d25" stroke-width="70"/>
<line x1="3000.0" y1="17300" x2="3000.0" y2="17560" stroke="#332d25" stroke-width="70"/>
<line x1="4000.0" y1="17300" x2="4000.0" y2="17560" stroke="#332d25" stroke-width="70"/>
<line x1="5000.0" y1="17300" x2="5000.0" y2="17560" stroke="#332d25" stroke-width="70"/>
<text x="0.0" y="17950" font-family="system-ui, -apple-system, 'Segoe UI', sans-serif" font-size="330" fill="#6b6459" text-anchor="middle">0 m</text>
<text x="5000.0" y="17950" font-family="system-ui, -apple-system, 'Segoe UI', sans-serif" font-size="330" fill="#6b6459" text-anchor="middle">5 m</text>
<text x="0" y="-560" font-family="Georgia, 'Times New Roman', serif" font-size="620" fill="#1c1a17">Přízemí</text>
<g transform="translate(6800,-260)">
  <path d="M0,0 V620 l-190,-230 m190,230 l190,-230" fill="none" stroke="#6b6459"
        stroke-width="75" stroke-linecap="round"/>
  <text x="0" y="-190" font-family="system-ui, -apple-system, 'Segoe UI', sans-serif" font-size="330" fill="#6b6459"
        text-anchor="middle" letter-spacing="60">VSTUP</text>
</g>
<text x="0" y="19530" font-family="system-ui, -apple-system, 'Segoe UI', sans-serif" font-size="330" fill="#6b6459">
Orientační schéma dispozice. Plochy podle legendy projektu (Ateliér A.J.A, 2004). Nejde o měřený výkres.
</text>
</svg>
